# xmcd CD database file
#
# Track frame offsets:
#	150
#	23464
#	50513
#	72544
#	95109
#	113532
#	140064
#	158497
#	175810
#	198635
#	227267
#	260143
#
# Disc length: 3739 seconds
#
# Revision: 0
# Processed by: cddbd v1.5.2PL0 Copyright (c) Steve Scherf et al.
# Submitted via: CDex 1.70beta2
#
DISCID=a20e990c
DTITLE=Various Artist - magic moments
DYEAR=1900
DGENRE=New Age
TTITLE0=when you were mine
TTITLE1=on the edge of forever
TTITLE2=just relax
TTITLE3=warm to the touch
TTITLE4=it's a terrific feeling part. 1
TTITLE5=a land befor eden
TTITLE6=embrace life
TTITLE7=dream of love
TTITLE8=it' a terrific feeling part. 2
TTITLE9=romantic child
TTITLE10=traveller
TTITLE11=trail of tears
EXTD=
EXTT0=
EXTT1=
EXTT2=
EXTT3=
EXTT4=
EXTT5=
EXTT6=
EXTT7=
EXTT8=
EXTT9=
EXTT10=
EXTT11=
PLAYORDER=
